<svg xmlns="http://www.w3.org/2000/svg" width="128" height="128" viewBox="0 0 33.9 33.9"><style>.a{fill:none;stroke-linejoin:round;stroke-opacity:0.3;stroke-width:2;stroke:#000;vector-effect:none;}.b{fill:#fff;stroke-linejoin:round;stroke-opacity:0.3;vector-effect:none;}</style><rect width="33.9" height="33.9" style="fill:none;stroke-linejoin:round;stroke-width:2;vector-effect:none"/><g transform="translate(0 -263.13332)matrix(0.96970001 0 0 0.96969492 0.51313266 8.4874845)"><g style="fill:none;stroke-opacity:0.3;stroke-width:2;stroke:#000"><rect width="7.4" height="2.5" x="0.5" y="278.8" ry="1.2" class="a"/><rect width="7.4" height="2.5" x="26" y="278.8" ry="1.2" class="a"/><rect width="7.4" height="2.5" x="263.7" y="-18.2" ry="1.2" transform="rotate(90)" class="a"/><rect width="7.4" height="2.5" x="289.1" y="-18.2" ry="1.2" transform="rotate(90)" class="a"/><rect width="2.5" height="2.5" x="-235.3" y="153.5" ry="1.2" transform="matrix(0.50000096 -0.86602485 0.86602597 0.49999903 0 0)" class="a"/></g><g style="fill:#fff;stroke-opacity:0.3"><rect width="7.4" height="2.5" x="0.5" y="278.8" ry="1.2" class="b"/><rect width="7.4" height="2.5" x="26" y="278.8" ry="1.2" class="b"/><rect width="7.4" height="2.5" x="263.7" y="-18.2" ry="1.2" transform="translate(0 -0.0000011481504)rotate(90)" class="b"/><rect width="7.4" height="2.5" x="289.1" y="-18.2" ry="1.2" transform="translate(0 -0.0000011481504)rotate(90)" class="b"/><rect width="2.5" height="2.5" x="-235.3" y="153.5" ry="1.2" transform="translate(0 -0.0000011481504)matrix(0.50000096 -0.86602485 0.86602597 0.49999903 0 0)" class="b"/></g></g></svg>
